# xmcd CD database file generated by OrangeCD 5.2
#
# Track frame offsets:
#	150
#	13160
#	23585
#	34500
#	45342
#	58131
#	68552
#	83635
#	98928
#	109452
#	123232
#	135255
#	149357
#	161808
#	176867
#	192405
#	206770
#
# Disc length: 2920 seconds
#
# Revision: 1
# Processed by: cddbd v1.5.1PL0 Copyright (c) Steve Scherf et al.
# Submitted via: OrangeCD 5.2
#
DISCID=ea0b6611
DTITLE=Various Artist - American Roots [CD1]
DYEAR=2002
DGENRE=Country
TTITLE0=Ralph Stanley - Man Of Constant Sorrow
TTITLE1=Harry McClintock - Big Rock Candy Mountain
TTITLE2=Gene Autry - You Are My Sunshine
TTITLE3=Flatt and Scruggs - Get In Line Brother
TTITLE4=Carter Family - Keep On The Sunny Side
TTITLE5=Woody Guthrie - This Land Is Your Land
TTITLE6=Jimmie Rodgers - In The Jailhouse Now
TTITLE7=Skip James - Hard Time Killing Floor Blues
TTITLE8=Sonny Terry and Brownie McGee - Hooray, Hooray, This Woman Is Killing Me
TTITLE9=Bill Monroe and The Blue Grass Boys - Blue Moon Of Kentucky
TTITLE10=Bailey Brothers - Take Me Back To Happy Valley
TTITLE11=Mississippi John Hurt - Here I Am, Oh Lord, Send Me
TTITLE12=Delmore Brothers - Freight Train Boogie
TTITLE13=Del McCoury and The Dixie Pals - Take Me To The Mountains
TTITLE14=Johnson Mountain Boys - My Better Years
TTITLE15=Alison Brown - Leaving Cottondale
TTITLE16=Johnny Cash - I Walk The Line
EXTD=
EXTT0=
EXTT1=
EXTT2=
EXTT3=
EXTT4=
EXTT5=
EXTT6=
EXTT7=
EXTT8=
EXTT9=
EXTT10=
EXTT11=
EXTT12=
EXTT13=
EXTT14=
EXTT15=
EXTT16=
PLAYORDER=
